$MeshFormat
4.1 0 8
$EndMeshFormat
$PhysicalNames
7
2 2 "east"
2 3 "west"
2 4 "north"
2 5 "south"
2 6 "front"
2 7 "back"
3 1 "fluid"
$EndPhysicalNames
$Entities
8 12 6 1
1 0 0 0 0 
2 2 0 0 0 
3 2 1 0 0 
4 0 1 0 0 
5 0 0 0.1 0 
6 2 0 0.1 0 
7 2 1 0.1 0 
8 0 1 0.1 0 
1 -9.999999994736442e-08 -1e-07 -1e-07 2.0000001 1e-07 1e-07 0 2 1 -2 
2 1.9999999 -9.999999994736442e-08 -1e-07 2.0000001 1.0000001 1e-07 0 2 2 -3 
3 -9.999999994736442e-08 0.9999999000000001 -1e-07 2.0000001 1.0000001 1e-07 0 2 3 -4 
4 -1e-07 -9.999999994736442e-08 -1e-07 1e-07 1.0000001 1e-07 0 2 4 -1 
5 -1e-07 -1e-07 -1.000000000028756e-07 1e-07 1e-07 0.1000001 0 2 1 -5 
6 1.9999999 -1e-07 -1.000000000028756e-07 2.0000001 1e-07 0.1000001 0 2 2 -6 
7 -9.999999994736442e-08 -1e-07 0.0999999 2.0000001 1e-07 0.1000001 0 2 5 -6 
8 1.9999999 0.9999999000000001 -1.000000000028756e-07 2.0000001 1.0000001 0.1000001 0 2 3 -7 
9 1.9999999 -9.999999994736442e-08 0.0999999 2.0000001 1.0000001 0.1000001 0 2 6 -7 
10 -1e-07 0.9999999000000001 -1.000000000028756e-07 1e-07 1.0000001 0.1000001 0 2 4 -8 
11 -9.999999994736442e-08 0.9999999000000001 0.0999999 2.0000001 1.0000001 0.1000001 0 2 7 -8 
12 -1e-07 -9.999999994736442e-08 0.0999999 1e-07 1.0000001 0.1000001 0 2 8 -5 
1 -9.999999994736442e-08 -9.999999994736442e-08 -1e-07 2.0000001 1.0000001 1e-07 1 7 4 1 2 3 4 
2 -9.999999994736442e-08 -1e-07 -1.000000000028756e-07 2.0000001 1e-07 0.1000001 1 5 4 5 7 -6 -1 
3 1.9999999 -9.999999994736442e-08 -1.000000000028756e-07 2.0000001 1.0000001 0.1000001 1 2 4 6 9 -8 -2 
4 -9.999999994736442e-08 0.9999999000000001 -1.000000000028756e-07 2.0000001 1.0000001 0.1000001 1 4 4 8 11 -10 -3 
5 -1e-07 -9.999999994736442e-08 -1.000000000028756e-07 1e-07 1.0000001 0.1000001 1 3 4 10 12 -5 -4 
6 -9.999999994736442e-08 -9.999999994736442e-08 0.0999999 2.0000001 1.0000001 0.1000001 1 6 4 7 9 11 12 
1 -9.999999994736442e-08 -9.999999994736442e-08 -1.000000000028756e-07 2.0000001 1.0000001 0.1000001 1 1 6 -2 -3 -4 -5 -1 6 
$EndEntities
$Nodes
23 462 1 462
0 1 0 1
1
0 0 0
0 2 0 1
2
2 0 0
0 3 0 1
3
2 1 0
0 4 0 1
4
0 1 0
0 5 0 1
5
0 0 0.1
0 6 0 1
6
2 0 0.1
0 7 0 1
7
2 1 0.1
0 8 0 1
8
0 1 0.1
1 1 0 19
9
10
11
12
13
14
15
16
17
18
19
20
21
22
23
24
25
26
27
0.1 0 0
0.2 0 0
0.3 0 0
0.4 0 0
0.5 0 0
0.6000000000000001 0 0
0.7000000000000001 0 0
0.8 0 0
0.9 0 0
1 0 0
1.1 0 0
1.2 0 0
1.3 0 0
1.4 0 0
1.5 0 0
1.6 0 0
1.7 0 0
1.8 0 0
1.9 0 0
1 2 0 9
28
29
30
31
32
33
34
35
36
2 0.1 0
2 0.2 0
2 0.3 0
2 0.4 0
2 0.5 0
2 0.6000000000000001 0
2 0.7000000000000001 0
2 0.8 0
2 0.9 0
1 3 0 19
37
38
39
40
41
42
43
44
45
46
47
48
49
50
51
52
53
54
55
1.9 1 0
1.8 1 0
1.7 1 0
1.6 1 0
1.5 1 0
1.4 1 0
1.3 1 0
1.2 1 0
1.1 1 0
1 1 0
0.8999999999999999 1 0
0.7999999999999998 1 0
0.7 1 0
0.5999999999999999 1 0
0.5 1 0
0.3999999999999999 1 0
0.2999999999999998 1 0
0.2 1 0
0.09999999999999987 1 0
1 4 0 9
56
57
58
59
60
61
62
63
64
0 0.9 0
0 0.8 0
0 0.7 0
0 0.6 0
0 0.5 0
0 0.3999999999999999 0
0 0.2999999999999999 0
0 0.2 0
0 0.09999999999999998 0
1 7 0 19
65
66
67
68
69
70
71
72
73
74
75
76
77
78
79
80
81
82
83
0.1 0 0.1
0.2 0 0.1
0.3 0 0.1
0.4 0 0.1
0.5 0 0.1
0.6000000000000001 0 0.1
0.7000000000000001 0 0.1
0.8 0 0.1
0.9 0 0.1
1 0 0.1
1.1 0 0.1
1.2 0 0.1
1.3 0 0.1
1.4 0 0.1
1.5 0 0.1
1.6 0 0.1
1.7 0 0.1
1.8 0 0.1
1.9 0 0.1
1 9 0 9
84
85
86
87
88
89
90
91
92
2 0.1 0.1
2 0.2 0.1
2 0.3 0.1
2 0.4 0.1
2 0.5 0.1
2 0.6000000000000001 0.1
2 0.7000000000000001 0.1
2 0.8 0.1
2 0.9 0.1
1 11 0 19
93
94
95
96
97
98
99
100
101
102
103
104
105
106
107
108
109
110
111
1.9 1 0.1
1.8 1 0.1
1.7 1 0.1
1.6 1 0.1
1.5 1 0.1
1.4 1 0.1
1.3 1 0.1
1.2 1 0.1
1.1 1 0.1
1 1 0.1
0.8999999999999999 1 0.1
0.7999999999999998 1 0.1
0.7 1 0.1
0.5999999999999999 1 0.1
0.5 1 0.1
0.3999999999999999 1 0.1
0.2999999999999998 1 0.1
0.2 1 0.1
0.09999999999999987 1 0.1
1 12 0 9
112
113
114
115
116
117
118
119
120
0 0.9 0.1
0 0.8 0.1
0 0.7 0.1
0 0.6 0.1
0 0.5 0.1
0 0.3999999999999999 0.1
0 0.2999999999999999 0.1
0 0.2 0.1
0 0.09999999999999998 0.1
2 1 0 171
121
122
123
124
125
126
127
128
129
130
131
132
133
134
135
136
137
138
139
140
141
142
143
144
145
146
147
148
149
150
151
152
153
154
155
156
157
158
159
160
161
162
163
164
165
166
167
168
169
170
171
172
173
174
175
176
177
178
179
180
181
182
183
184
185
186
187
188
189
190
191
192
193
194
195
196
197
198
199
200
201
202
203
204
205
206
207
208
209
210
211
212
213
214
215
216
217
218
219
220
221
222
223
224
225
226
227
228
229
230
231
232
233
234
235
236
237
238
239
240
241
242
243
244
245
246
247
248
249
250
251
252
253
254
255
256
257
258
259
260
261
262
263
264
265
266
267
268
269
270
271
272
273
274
275
276
277
278
279
280
281
282
283
284
285
286
287
288
289
290
291
0.09999999999999987 0.09999999999999998 0
0.1000000000000001 0.2 0
0.1000000000000001 0.2999999999999999 0
0.09999999999999987 0.3999999999999999 0
0.09999999999999987 0.5 0
0.09999999999999987 0.6 0
0.09999999999999987 0.7 0
0.09999999999999987 0.8 0
0.09999999999999987 0.9 0
0.2 0.09999999999999998 0
0.2 0.2 0
0.2 0.2999999999999999 0
0.1999999999999998 0.3999999999999999 0
0.2 0.5 0
0.2 0.6 0
0.2000000000000001 0.7 0
0.2 0.8 0
0.2 0.9 0
0.2999999999999999 0.1 0
0.2999999999999998 0.2 0
0.2999999999999998 0.3 0
0.3 0.3999999999999999 0
0.2999999999999998 0.5 0
0.2999999999999998 0.6 0
0.2999999999999997 0.7 0
0.2999999999999998 0.8 0
0.2999999999999998 0.9 0
0.3999999999999999 0.09999999999999998 0
0.4 0.1999999999999999 0
0.4000000000000001 0.2999999999999999 0
0.3999999999999999 0.3999999999999999 0
0.3999999999999999 0.5 0
0.3999999999999999 0.6 0
0.3999999999999999 0.7 0
0.4 0.8 0
0.3999999999999999 0.9 0
0.5000000000000001 0.09999999999999998 0
0.5000000000000001 0.2 0
0.5 0.2999999999999999 0
0.5 0.3999999999999999 0
0.5 0.5 0
0.5 0.6 0
0.5 0.7 0
0.5000000000000001 0.8 0
0.5000000000000001 0.9 0
0.6000000000000001 0.09999999999999998 0
0.5999999999999999 0.2 0
0.6000000000000001 0.2999999999999999 0
0.6 0.3999999999999999 0
0.6 0.5 0
0.6 0.6 0
0.5999999999999999 0.7 0
0.5999999999999999 0.8 0
0.5999999999999999 0.9 0
0.7000000000000001 0.09999999999999998 0
0.7 0.2 0
0.7000000000000002 0.2999999999999999 0
0.7 0.4 0
0.7 0.5 0
0.7 0.6 0
0.7 0.7 0
0.7 0.8 0
0.7000000000000001 0.8999999999999999 0
0.8 0.09999999999999987 0
0.8 0.2 0
0.7999999999999999 0.3 0
0.7999999999999999 0.4 0
0.7999999999999999 0.5 0
0.7999999999999999 0.6000000000000001 0
0.7999999999999999 0.7 0
0.7999999999999998 0.8 0
0.7999999999999998 0.9 0
0.9 0.09999999999999998 0
0.9 0.2 0
0.8999999999999999 0.2999999999999999 0
0.8999999999999999 0.4 0
0.8999999999999999 0.5 0
0.8999999999999999 0.6000000000000001 0
0.8999999999999999 0.7 0
0.8999999999999999 0.8 0
0.8999999999999999 0.9 0
1 0.09999999999999998 0
1 0.2 0
1 0.3 0
1 0.4 0
1 0.5 0
1 0.6000000000000001 0
1 0.7 0
1 0.8 0
1 0.9 0
1.1 0.09999999999999998 0
1.1 0.2 0
1.1 0.2999999999999999 0
1.1 0.4 0
1.1 0.5 0
1.1 0.6000000000000001 0
1.1 0.7 0
1.1 0.8 0
1.1 0.9 0
1.2 0.1 0
1.2 0.2 0
1.2 0.3 0
1.2 0.4 0
1.2 0.5 0
1.2 0.6000000000000001 0
1.2 0.7 0
1.2 0.8 0
1.2 0.9 0
1.3 0.1 0
1.3 0.2 0
1.3 0.3 0
1.3 0.4 0
1.3 0.5 0
1.3 0.6000000000000001 0
1.3 0.7000000000000001 0
1.3 0.8 0
1.3 0.9 0
1.4 0.1 0
1.4 0.1999999999999999 0
1.4 0.3 0
1.4 0.4 0
1.4 0.5 0
1.4 0.6000000000000001 0
1.4 0.7000000000000001 0
1.4 0.8 0
1.4 0.9 0
1.5 0.09999999999999998 0
1.5 0.2000000000000001 0
1.5 0.3 0
1.5 0.4 0
1.5 0.5 0
1.5 0.6000000000000001 0
1.5 0.7000000000000001 0
1.5 0.8 0
1.5 0.9 0
1.6 0.09999999999999998 0
1.6 0.2000000000000001 0
1.6 0.3 0
1.6 0.4 0
1.6 0.5 0
1.6 0.6000000000000001 0
1.6 0.7000000000000001 0
1.6 0.8 0
1.6 0.9 0
1.7 0.09999999999999998 0
1.7 0.2000000000000001 0
1.7 0.3 0
1.7 0.4 0
1.7 0.5 0
1.7 0.6000000000000001 0
1.7 0.7000000000000001 0
1.7 0.8 0
1.7 0.9 0
1.8 0.09999999999999998 0
1.8 0.2000000000000001 0
1.8 0.3 0
1.8 0.4 0
1.8 0.5 0
1.8 0.6000000000000001 0
1.8 0.7000000000000001 0
1.8 0.8 0
1.8 0.9 0
1.9 0.09999999999999998 0
1.9 0.2000000000000001 0
1.9 0.3 0
1.9 0.4 0
1.9 0.5 0
1.9 0.6000000000000001 0
1.9 0.7000000000000001 0
1.9 0.8 0
1.9 0.9 0
2 2 0 0
2 3 0 0
2 4 0 0
2 5 0 0
2 6 0 171
292
293
294
295
296
297
298
299
300
301
302
303
304
305
306
307
308
309
310
311
312
313
314
315
316
317
318
319
320
321
322
323
324
325
326
327
328
329
330
331
332
333
334
335
336
337
338
339
340
341
342
343
344
345
346
347
348
349
350
351
352
353
354
355
356
357
358
359
360
361
362
363
364
365
366
367
368
369
370
371
372
373
374
375
376
377
378
379
380
381
382
383
384
385
386
387
388
389
390
391
392
393
394
395
396
397
398
399
400
401
402
403
404
405
406
407
408
409
410
411
412
413
414
415
416
417
418
419
420
421
422
423
424
425
426
427
428
429
430
431
432
433
434
435
436
437
438
439
440
441
442
443
444
445
446
447
448
449
450
451
452
453
454
455
456
457
458
459
460
461
462
0.09999999999999987 0.09999999999999998 0.1
0.1000000000000001 0.2 0.1
0.1000000000000001 0.2999999999999999 0.1
0.09999999999999987 0.3999999999999999 0.1
0.09999999999999987 0.5 0.1
0.09999999999999987 0.6 0.1
0.09999999999999987 0.7 0.1
0.09999999999999987 0.8 0.1
0.09999999999999987 0.9 0.1
0.2 0.09999999999999998 0.1
0.2 0.2 0.1
0.2 0.2999999999999999 0.1
0.1999999999999998 0.3999999999999999 0.1
0.2 0.5 0.1
0.2 0.6 0.1
0.2000000000000001 0.7 0.1
0.2 0.8 0.1
0.2 0.9 0.1
0.2999999999999999 0.1 0.1
0.2999999999999998 0.2 0.1
0.2999999999999998 0.3 0.1
0.3 0.3999999999999999 0.1
0.2999999999999998 0.5 0.1
0.2999999999999998 0.6 0.1
0.2999999999999997 0.7 0.1
0.2999999999999998 0.8 0.1
0.2999999999999998 0.9 0.1
0.3999999999999999 0.09999999999999998 0.1
0.4 0.1999999999999999 0.1
0.4000000000000001 0.2999999999999999 0.1
0.3999999999999999 0.3999999999999999 0.1
0.3999999999999999 0.5 0.1
0.3999999999999999 0.6 0.1
0.3999999999999999 0.7 0.1
0.4 0.8 0.1
0.3999999999999999 0.9 0.1
0.5000000000000001 0.09999999999999998 0.1
0.5000000000000001 0.2 0.1
0.5 0.2999999999999999 0.1
0.5 0.3999999999999999 0.1
0.5 0.5 0.1
0.5 0.6 0.1
0.5 0.7 0.1
0.5000000000000001 0.8 0.1
0.5000000000000001 0.9 0.1
0.6000000000000001 0.09999999999999998 0.1
0.5999999999999999 0.2 0.1
0.6000000000000001 0.2999999999999999 0.1
0.6 0.3999999999999999 0.1
0.6 0.5 0.1
0.6 0.6 0.1
0.5999999999999999 0.7 0.1
0.5999999999999999 0.8 0.1
0.5999999999999999 0.9 0.1
0.7000000000000001 0.09999999999999998 0.1
0.7 0.2 0.1
0.7000000000000002 0.2999999999999999 0.1
0.7 0.4 0.1
0.7 0.5 0.1
0.7 0.6 0.1
0.7 0.7 0.1
0.7 0.8 0.1
0.7000000000000001 0.8999999999999999 0.1
0.8 0.09999999999999987 0.1
0.8 0.2 0.1
0.7999999999999999 0.3 0.1
0.7999999999999999 0.4 0.1
0.7999999999999999 0.5 0.1
0.7999999999999999 0.6000000000000001 0.1
0.7999999999999999 0.7 0.1
0.7999999999999998 0.8 0.1
0.7999999999999998 0.9 0.1
0.9 0.09999999999999998 0.1
0.9 0.2 0.1
0.8999999999999999 0.2999999999999999 0.1
0.8999999999999999 0.4 0.1
0.8999999999999999 0.5 0.1
0.8999999999999999 0.6000000000000001 0.1
0.8999999999999999 0.7 0.1
0.8999999999999999 0.8 0.1
0.8999999999999999 0.9 0.1
1 0.09999999999999998 0.1
1 0.2 0.1
1 0.3 0.1
1 0.4 0.1
1 0.5 0.1
1 0.6000000000000001 0.1
1 0.7 0.1
1 0.8 0.1
1 0.9 0.1
1.1 0.09999999999999998 0.1
1.1 0.2 0.1
1.1 0.2999999999999999 0.1
1.1 0.4 0.1
1.1 0.5 0.1
1.1 0.6000000000000001 0.1
1.1 0.7 0.1
1.1 0.8 0.1
1.1 0.9 0.1
1.2 0.1 0.1
1.2 0.2 0.1
1.2 0.3 0.1
1.2 0.4 0.1
1.2 0.5 0.1
1.2 0.6000000000000001 0.1
1.2 0.7 0.1
1.2 0.8 0.1
1.2 0.9 0.1
1.3 0.1 0.1
1.3 0.2 0.1
1.3 0.3 0.1
1.3 0.4 0.1
1.3 0.5 0.1
1.3 0.6000000000000001 0.1
1.3 0.7000000000000001 0.1
1.3 0.8 0.1
1.3 0.9 0.1
1.4 0.1 0.1
1.4 0.1999999999999999 0.1
1.4 0.3 0.1
1.4 0.4 0.1
1.4 0.5 0.1
1.4 0.6000000000000001 0.1
1.4 0.7000000000000001 0.1
1.4 0.8 0.1
1.4 0.9 0.1
1.5 0.09999999999999998 0.1
1.5 0.2000000000000001 0.1
1.5 0.3 0.1
1.5 0.4 0.1
1.5 0.5 0.1
1.5 0.6000000000000001 0.1
1.5 0.7000000000000001 0.1
1.5 0.8 0.1
1.5 0.9 0.1
1.6 0.09999999999999998 0.1
1.6 0.2000000000000001 0.1
1.6 0.3 0.1
1.6 0.4 0.1
1.6 0.5 0.1
1.6 0.6000000000000001 0.1
1.6 0.7000000000000001 0.1
1.6 0.8 0.1
1.6 0.9 0.1
1.7 0.09999999999999998 0.1
1.7 0.2000000000000001 0.1
1.7 0.3 0.1
1.7 0.4 0.1
1.7 0.5 0.1
1.7 0.6000000000000001 0.1
1.7 0.7000000000000001 0.1
1.7 0.8 0.1
1.7 0.9 0.1
1.8 0.09999999999999998 0.1
1.8 0.2000000000000001 0.1
1.8 0.3 0.1
1.8 0.4 0.1
1.8 0.5 0.1
1.8 0.6000000000000001 0.1
1.8 0.7000000000000001 0.1
1.8 0.8 0.1
1.8 0.9 0.1
1.9 0.09999999999999998 0.1
1.9 0.2000000000000001 0.1
1.9 0.3 0.1
1.9 0.4 0.1
1.9 0.5 0.1
1.9 0.6000000000000001 0.1
1.9 0.7000000000000001 0.1
1.9 0.8 0.1
1.9 0.9 0.1
3 1 0 0
$EndNodes
$Elements
7 660 1 660
2 1 3 200
1 1 9 121 64 
2 64 121 122 63 
3 63 122 123 62 
4 62 123 124 61 
5 61 124 125 60 
6 60 125 126 59 
7 59 126 127 58 
8 58 127 128 57 
9 57 128 129 56 
10 56 129 55 4 
11 9 10 130 121 
12 121 130 131 122 
13 122 131 132 123 
14 123 132 133 124 
15 124 133 134 125 
16 125 134 135 126 
17 126 135 136 127 
18 127 136 137 128 
19 128 137 138 129 
20 129 138 54 55 
21 10 11 139 130 
22 130 139 140 131 
23 131 140 141 132 
24 132 141 142 133 
25 133 142 143 134 
26 134 143 144 135 
27 135 144 145 136 
28 136 145 146 137 
29 137 146 147 138 
30 138 147 53 54 
31 11 12 148 139 
32 139 148 149 140 
33 140 149 150 141 
34 141 150 151 142 
35 142 151 152 143 
36 143 152 153 144 
37 144 153 154 145 
38 145 154 155 146 
39 146 155 156 147 
40 147 156 52 53 
41 12 13 157 148 
42 148 157 158 149 
43 149 158 159 150 
44 150 159 160 151 
45 151 160 161 152 
46 152 161 162 153 
47 153 162 163 154 
48 154 163 164 155 
49 155 164 165 156 
50 156 165 51 52 
51 13 14 166 157 
52 157 166 167 158 
53 158 167 168 159 
54 159 168 169 160 
55 160 169 170 161 
56 161 170 171 162 
57 162 171 172 163 
58 163 172 173 164 
59 164 173 174 165 
60 165 174 50 51 
61 14 15 175 166 
62 166 175 176 167 
63 167 176 177 168 
64 168 177 178 169 
65 169 178 179 170 
66 170 179 180 171 
67 171 180 181 172 
68 172 181 182 173 
69 173 182 183 174 
70 174 183 49 50 
71 15 16 184 175 
72 175 184 185 176 
73 176 185 186 177 
74 177 186 187 178 
75 178 187 188 179 
76 179 188 189 180 
77 180 189 190 181 
78 181 190 191 182 
79 182 191 192 183 
80 183 192 48 49 
81 16 17 193 184 
82 184 193 194 185 
83 185 194 195 186 
84 186 195 196 187 
85 187 196 197 188 
86 188 197 198 189 
87 189 198 199 190 
88 190 199 200 191 
89 191 200 201 192 
90 192 201 47 48 
91 17 18 202 193 
92 193 202 203 194 
93 194 203 204 195 
94 195 204 205 196 
95 196 205 206 197 
96 197 206 207 198 
97 198 207 208 199 
98 199 208 209 200 
99 200 209 210 201 
100 201 210 46 47 
101 18 19 211 202 
102 202 211 212 203 
103 203 212 213 204 
104 204 213 214 205 
105 205 214 215 206 
106 206 215 216 207 
107 207 216 217 208 
108 208 217 218 209 
109 209 218 219 210 
110 210 219 45 46 
111 19 20 220 211 
112 211 220 221 212 
113 212 221 222 213 
114 213 222 223 214 
115 214 223 224 215 
116 215 224 225 216 
117 216 225 226 217 
118 217 226 227 218 
119 218 227 228 219 
120 219 228 44 45 
121 20 21 229 220 
122 220 229 230 221 
123 221 230 231 222 
124 222 231 232 223 
125 223 232 233 224 
126 224 233 234 225 
127 225 234 235 226 
128 226 235 236 227 
129 227 236 237 228 
130 228 237 43 44 
131 21 22 238 229 
132 229 238 239 230 
133 230 239 240 231 
134 231 240 241 232 
135 232 241 242 233 
136 233 242 243 234 
137 234 243 244 235 
138 235 244 245 236 
139 236 245 246 237 
140 237 246 42 43 
141 22 23 247 238 
142 238 247 248 239 
143 239 248 249 240 
144 240 249 250 241 
145 241 250 251 242 
146 242 251 252 243 
147 243 252 253 244 
148 244 253 254 245 
149 245 254 255 246 
150 246 255 41 42 
151 23 24 256 247 
152 247 256 257 248 
153 248 257 258 249 
154 249 258 259 250 
155 250 259 260 251 
156 251 260 261 252 
157 252 261 262 253 
158 253 262 263 254 
159 254 263 264 255 
160 255 264 40 41 
161 24 25 265 256 
162 256 265 266 257 
163 257 266 267 258 
164 258 267 268 259 
165 259 268 269 260 
166 260 269 270 261 
167 261 270 271 262 
168 262 271 272 263 
169 263 272 273 264 
170 264 273 39 40 
171 25 26 274 265 
172 265 274 275 266 
173 266 275 276 267 
174 267 276 277 268 
175 268 277 278 269 
176 269 278 279 270 
177 270 279 280 271 
178 271 280 281 272 
179 272 281 282 273 
180 273 282 38 39 
181 26 27 283 274 
182 274 283 284 275 
183 275 284 285 276 
184 276 285 286 277 
185 277 286 287 278 
186 278 287 288 279 
187 279 288 289 280 
188 280 289 290 281 
189 281 290 291 282 
190 282 291 37 38 
191 27 2 28 283 
192 283 28 29 284 
193 284 29 30 285 
194 285 30 31 286 
195 286 31 32 287 
196 287 32 33 288 
197 288 33 34 289 
198 289 34 35 290 
199 290 35 36 291 
200 291 36 3 37 
2 2 3 20
201 1 9 65 5 
202 9 10 66 65 
203 10 11 67 66 
204 11 12 68 67 
205 12 13 69 68 
206 13 14 70 69 
207 14 15 71 70 
208 15 16 72 71 
209 16 17 73 72 
210 17 18 74 73 
211 18 19 75 74 
212 19 20 76 75 
213 20 21 77 76 
214 21 22 78 77 
215 22 23 79 78 
216 23 24 80 79 
217 24 25 81 80 
218 25 26 82 81 
219 26 27 83 82 
220 27 2 6 83 
2 3 3 10
221 2 28 84 6 
222 28 29 85 84 
223 29 30 86 85 
224 30 31 87 86 
225 31 32 88 87 
226 32 33 89 88 
227 33 34 90 89 
228 34 35 91 90 
229 35 36 92 91 
230 36 3 7 92 
2 4 3 20
231 3 37 93 7 
232 37 38 94 93 
233 38 39 95 94 
234 39 40 96 95 
235 40 41 97 96 
236 41 42 98 97 
237 42 43 99 98 
238 43 44 100 99 
239 44 45 101 100 
240 45 46 102 101 
241 46 47 103 102 
242 47 48 104 103 
243 48 49 105 104 
244 49 50 106 105 
245 50 51 107 106 
246 51 52 108 107 
247 52 53 109 108 
248 53 54 110 109 
249 54 55 111 110 
250 55 4 8 111 
2 5 3 10
251 4 56 112 8 
252 56 57 113 112 
253 57 58 114 113 
254 58 59 115 114 
255 59 60 116 115 
256 60 61 117 116 
257 61 62 118 117 
258 62 63 119 118 
259 63 64 120 119 
260 64 1 5 120 
2 6 3 200
261 5 65 292 120 
262 120 292 293 119 
263 119 293 294 118 
264 118 294 295 117 
265 117 295 296 116 
266 116 296 297 115 
267 115 297 298 114 
268 114 298 299 113 
269 113 299 300 112 
270 112 300 111 8 
271 65 66 301 292 
272 292 301 302 293 
273 293 302 303 294 
274 294 303 304 295 
275 295 304 305 296 
276 296 305 306 297 
277 297 306 307 298 
278 298 307 308 299 
279 299 308 309 300 
280 300 309 110 111 
281 66 67 310 301 
282 301 310 311 302 
283 302 311 312 303 
284 303 312 313 304 
285 304 313 314 305 
286 305 314 315 306 
287 306 315 316 307 
288 307 316 317 308 
289 308 317 318 309 
290 309 318 109 110 
291 67 68 319 310 
292 310 319 320 311 
293 311 320 321 312 
294 312 321 322 313 
295 313 322 323 314 
296 314 323 324 315 
297 315 324 325 316 
298 316 325 326 317 
299 317 326 327 318 
300 318 327 108 109 
301 68 69 328 319 
302 319 328 329 320 
303 320 329 330 321 
304 321 330 331 322 
305 322 331 332 323 
306 323 332 333 324 
307 324 333 334 325 
308 325 334 335 326 
309 326 335 336 327 
310 327 336 107 108 
311 69 70 337 328 
312 328 337 338 329 
313 329 338 339 330 
314 330 339 340 331 
315 331 340 341 332 
316 332 341 342 333 
317 333 342 343 334 
318 334 343 344 335 
319 335 344 345 336 
320 336 345 106 107 
321 70 71 346 337 
322 337 346 347 338 
323 338 347 348 339 
324 339 348 349 340 
325 340 349 350 341 
326 341 350 351 342 
327 342 351 352 343 
328 343 352 353 344 
329 344 353 354 345 
330 345 354 105 106 
331 71 72 355 346 
332 346 355 356 347 
333 347 356 357 348 
334 348 357 358 349 
335 349 358 359 350 
336 350 359 360 351 
337 351 360 361 352 
338 352 361 362 353 
339 353 362 363 354 
340 354 363 104 105 
341 72 73 364 355 
342 355 364 365 356 
343 356 365 366 357 
344 357 366 367 358 
345 358 367 368 359 
346 359 368 369 360 
347 360 369 370 361 
348 361 370 371 362 
349 362 371 372 363 
350 363 372 103 104 
351 73 74 373 364 
352 364 373 374 365 
353 365 374 375 366 
354 366 375 376 367 
355 367 376 377 368 
356 368 377 378 369 
357 369 378 379 370 
358 370 379 380 371 
359 371 380 381 372 
360 372 381 102 103 
361 74 75 382 373 
362 373 382 383 374 
363 374 383 384 375 
364 375 384 385 376 
365 376 385 386 377 
366 377 386 387 378 
367 378 387 388 379 
368 379 388 389 380 
369 380 389 390 381 
370 381 390 101 102 
371 75 76 391 382 
372 382 391 392 383 
373 383 392 393 384 
374 384 393 394 385 
375 385 394 395 386 
376 386 395 396 387 
377 387 396 397 388 
378 388 397 398 389 
379 389 398 399 390 
380 390 399 100 101 
381 76 77 400 391 
382 391 400 401 392 
383 392 401 402 393 
384 393 402 403 394 
385 394 403 404 395 
386 395 404 405 396 
387 396 405 406 397 
388 397 406 407 398 
389 398 407 408 399 
390 399 408 99 100 
391 77 78 409 400 
392 400 409 410 401 
393 401 410 411 402 
394 402 411 412 403 
395 403 412 413 404 
396 404 413 414 405 
397 405 414 415 406 
398 406 415 416 407 
399 407 416 417 408 
400 408 417 98 99 
401 78 79 418 409 
402 409 418 419 410 
403 410 419 420 411 
404 411 420 421 412 
405 412 421 422 413 
406 413 422 423 414 
407 414 423 424 415 
408 415 424 425 416 
409 416 425 426 417 
410 417 426 97 98 
411 79 80 427 418 
412 418 427 428 419 
413 419 428 429 420 
414 420 429 430 421 
415 421 430 431 422 
416 422 431 432 423 
417 423 432 433 424 
418 424 433 434 425 
419 425 434 435 426 
420 426 435 96 97 
421 80 81 436 427 
422 427 436 437 428 
423 428 437 438 429 
424 429 438 439 430 
425 430 439 440 431 
426 431 440 441 432 
427 432 441 442 433 
428 433 442 443 434 
429 434 443 444 435 
430 435 444 95 96 
431 81 82 445 436 
432 436 445 446 437 
433 437 446 447 438 
434 438 447 448 439 
435 439 448 449 440 
436 440 449 450 441 
437 441 450 451 442 
438 442 451 452 443 
439 443 452 453 444 
440 444 453 94 95 
441 82 83 454 445 
442 445 454 455 446 
443 446 455 456 447 
444 447 456 457 448 
445 448 457 458 449 
446 449 458 459 450 
447 450 459 460 451 
448 451 460 461 452 
449 452 461 462 453 
450 453 462 93 94 
451 83 6 84 454 
452 454 84 85 455 
453 455 85 86 456 
454 456 86 87 457 
455 457 87 88 458 
456 458 88 89 459 
457 459 89 90 460 
458 460 90 91 461 
459 461 91 92 462 
460 462 92 7 93 
3 1 5 200
461 1 9 121 64 5 65 292 120 
462 64 121 122 63 120 292 293 119 
463 63 122 123 62 119 293 294 118 
464 62 123 124 61 118 294 295 117 
465 61 124 125 60 117 295 296 116 
466 60 125 126 59 116 296 297 115 
467 59 126 127 58 115 297 298 114 
468 58 127 128 57 114 298 299 113 
469 57 128 129 56 113 299 300 112 
470 56 129 55 4 112 300 111 8 
471 9 10 130 121 65 66 301 292 
472 121 130 131 122 292 301 302 293 
473 122 131 132 123 293 302 303 294 
474 123 132 133 124 294 303 304 295 
475 124 133 134 125 295 304 305 296 
476 125 134 135 126 296 305 306 297 
477 126 135 136 127 297 306 307 298 
478 127 136 137 128 298 307 308 299 
479 128 137 138 129 299 308 309 300 
480 129 138 54 55 300 309 110 111 
481 10 11 139 130 66 67 310 301 
482 130 139 140 131 301 310 311 302 
483 131 140 141 132 302 311 312 303 
484 132 141 142 133 303 312 313 304 
485 133 142 143 134 304 313 314 305 
486 134 143 144 135 305 314 315 306 
487 135 144 145 136 306 315 316 307 
488 136 145 146 137 307 316 317 308 
489 137 146 147 138 308 317 318 309 
490 138 147 53 54 309 318 109 110 
491 11 12 148 139 67 68 319 310 
492 139 148 149 140 310 319 320 311 
493 140 149 150 141 311 320 321 312 
494 141 150 151 142 312 321 322 313 
495 142 151 152 143 313 322 323 314 
496 143 152 153 144 314 323 324 315 
497 144 153 154 145 315 324 325 316 
498 145 154 155 146 316 325 326 317 
499 146 155 156 147 317 326 327 318 
500 147 156 52 53 318 327 108 109 
501 12 13 157 148 68 69 328 319 
502 148 157 158 149 319 328 329 320 
503 149 158 159 150 320 329 330 321 
504 150 159 160 151 321 330 331 322 
505 151 160 161 152 322 331 332 323 
506 152 161 162 153 323 332 333 324 
507 153 162 163 154 324 333 334 325 
508 154 163 164 155 325 334 335 326 
509 155 164 165 156 326 335 336 327 
510 156 165 51 52 327 336 107 108 
511 13 14 166 157 69 70 337 328 
512 157 166 167 158 328 337 338 329 
513 158 167 168 159 329 338 339 330 
514 159 168 169 160 330 339 340 331 
515 160 169 170 161 331 340 341 332 
516 161 170 171 162 332 341 342 333 
517 162 171 172 163 333 342 343 334 
518 163 172 173 164 334 343 344 335 
519 164 173 174 165 335 344 345 336 
520 165 174 50 51 336 345 106 107 
521 14 15 175 166 70 71 346 337 
522 166 175 176 167 337 346 347 338 
523 167 176 177 168 338 347 348 339 
524 168 177 178 169 339 348 349 340 
525 169 178 179 170 340 349 350 341 
526 170 179 180 171 341 350 351 342 
527 171 180 181 172 342 351 352 343 
528 172 181 182 173 343 352 353 344 
529 173 182 183 174 344 353 354 345 
530 174 183 49 50 345 354 105 106 
531 15 16 184 175 71 72 355 346 
532 175 184 185 176 346 355 356 347 
533 176 185 186 177 347 356 357 348 
534 177 186 187 178 348 357 358 349 
535 178 187 188 179 349 358 359 350 
536 179 188 189 180 350 359 360 351 
537 180 189 190 181 351 360 361 352 
538 181 190 191 182 352 361 362 353 
539 182 191 192 183 353 362 363 354 
540 183 192 48 49 354 363 104 105 
541 16 17 193 184 72 73 364 355 
542 184 193 194 185 355 364 365 356 
543 185 194 195 186 356 365 366 357 
544 186 195 196 187 357 366 367 358 
545 187 196 197 188 358 367 368 359 
546 188 197 198 189 359 368 369 360 
547 189 198 199 190 360 369 370 361 
548 190 199 200 191 361 370 371 362 
549 191 200 201 192 362 371 372 363 
550 192 201 47 48 363 372 103 104 
551 17 18 202 193 73 74 373 364 
552 193 202 203 194 364 373 374 365 
553 194 203 204 195 365 374 375 366 
554 195 204 205 196 366 375 376 367 
555 196 205 206 197 367 376 377 368 
556 197 206 207 198 368 377 378 369 
557 198 207 208 199 369 378 379 370 
558 199 208 209 200 370 379 380 371 
559 200 209 210 201 371 380 381 372 
560 201 210 46 47 372 381 102 103 
561 18 19 211 202 74 75 382 373 
562 202 211 212 203 373 382 383 374 
563 203 212 213 204 374 383 384 375 
564 204 213 214 205 375 384 385 376 
565 205 214 215 206 376 385 386 377 
566 206 215 216 207 377 386 387 378 
567 207 216 217 208 378 387 388 379 
568 208 217 218 209 379 388 389 380 
569 209 218 219 210 380 389 390 381 
570 210 219 45 46 381 390 101 102 
571 19 20 220 211 75 76 391 382 
572 211 220 221 212 382 391 392 383 
573 212 221 222 213 383 392 393 384 
574 213 222 223 214 384 393 394 385 
575 214 223 224 215 385 394 395 386 
576 215 224 225 216 386 395 396 387 
577 216 225 226 217 387 396 397 388 
578 217 226 227 218 388 397 398 389 
579 218 227 228 219 389 398 399 390 
580 219 228 44 45 390 399 100 101 
581 20 21 229 220 76 77 400 391 
582 220 229 230 221 391 400 401 392 
583 221 230 231 222 392 401 402 393 
584 222 231 232 223 393 402 403 394 
585 223 232 233 224 394 403 404 395 
586 224 233 234 225 395 404 405 396 
587 225 234 235 226 396 405 406 397 
588 226 235 236 227 397 406 407 398 
589 227 236 237 228 398 407 408 399 
590 228 237 43 44 399 408 99 100 
591 21 22 238 229 77 78 409 400 
592 229 238 239 230 400 409 410 401 
593 230 239 240 231 401 410 411 402 
594 231 240 241 232 402 411 412 403 
595 232 241 242 233 403 412 413 404 
596 233 242 243 234 404 413 414 405 
597 234 243 244 235 405 414 415 406 
598 235 244 245 236 406 415 416 407 
599 236 245 246 237 407 416 417 408 
600 237 246 42 43 408 417 98 99 
601 22 23 247 238 78 79 418 409 
602 238 247 248 239 409 418 419 410 
603 239 248 249 240 410 419 420 411 
604 240 249 250 241 411 420 421 412 
605 241 250 251 242 412 421 422 413 
606 242 251 252 243 413 422 423 414 
607 243 252 253 244 414 423 424 415 
608 244 253 254 245 415 424 425 416 
609 245 254 255 246 416 425 426 417 
610 246 255 41 42 417 426 97 98 
611 23 24 256 247 79 80 427 418 
612 247 256 257 248 418 427 428 419 
613 248 257 258 249 419 428 429 420 
614 249 258 259 250 420 429 430 421 
615 250 259 260 251 421 430 431 422 
616 251 260 261 252 422 431 432 423 
617 252 261 262 253 423 432 433 424 
618 253 262 263 254 424 433 434 425 
619 254 263 264 255 425 434 435 426 
620 255 264 40 41 426 435 96 97 
621 24 25 265 256 80 81 436 427 
622 256 265 266 257 427 436 437 428 
623 257 266 267 258 428 437 438 429 
624 258 267 268 259 429 438 439 430 
625 259 268 269 260 430 439 440 431 
626 260 269 270 261 431 440 441 432 
627 261 270 271 262 432 441 442 433 
628 262 271 272 263 433 442 443 434 
629 263 272 273 264 434 443 444 435 
630 264 273 39 40 435 444 95 96 
631 25 26 274 265 81 82 445 436 
632 265 274 275 266 436 445 446 437 
633 266 275 276 267 437 446 447 438 
634 267 276 277 268 438 447 448 439 
635 268 277 278 269 439 448 449 440 
636 269 278 279 270 440 449 450 441 
637 270 279 280 271 441 450 451 442 
638 271 280 281 272 442 451 452 443 
639 272 281 282 273 443 452 453 444 
640 273 282 38 39 444 453 94 95 
641 26 27 283 274 82 83 454 445 
642 274 283 284 275 445 454 455 446 
643 275 284 285 276 446 455 456 447 
644 276 285 286 277 447 456 457 448 
645 277 286 287 278 448 457 458 449 
646 278 287 288 279 449 458 459 450 
647 279 288 289 280 450 459 460 451 
648 280 289 290 281 451 460 461 452 
649 281 290 291 282 452 461 462 453 
650 282 291 37 38 453 462 93 94 
651 27 2 28 283 83 6 84 454 
652 283 28 29 284 454 84 85 455 
653 284 29 30 285 455 85 86 456 
654 285 30 31 286 456 86 87 457 
655 286 31 32 287 457 87 88 458 
656 287 32 33 288 458 88 89 459 
657 288 33 34 289 459 89 90 460 
658 289 34 35 290 460 90 91 461 
659 290 35 36 291 461 91 92 462 
660 291 36 3 37 462 92 7 93 
$EndElements
